<svg width="512" height="512" viewBox="0 0 512 512" fill="none" xmlns="http://www.w3.org/2000/svg">
    <rect width="512" height="512" fill="#00695C" />
    <path
        d="M495.361 199.857C494.794 197.449 494.193 195.044 493.557 192.643C492.885 190.106 492.164 187.581 491.409 185.067C488.884 176.664 485.902 168.405 482.479 160.327C480.629 155.964 478.666 151.671 476.59 147.446C475.935 146.114 475.269 144.798 474.592 143.483C472.55 139.521 470.407 135.636 468.165 131.829C457.552 113.723 444.659 97.0545 429.802 82.2309C429.486 81.9146 429.17 81.5983 428.853 81.293L428.204 80.6493C417.771 70.3882 406.44 61.0812 394.348 52.8396C391.299 50.7604 388.202 48.7495 385.057 46.8071C384.669 46.5685 384.28 46.3243 383.886 46.0912C332.355 14.7742 271.129 3.43468 211.799 14.2192C207.729 14.9591 203.684 15.8027 199.666 16.7499C197.365 17.2863 195.074 17.8579 192.795 18.4647C144.234 31.3986 100.801 58.898 68.3434 97.2612C35.8855 135.624 15.9604 183.01 11.2501 233.039C11.1835 233.705 11.1225 234.376 11.067 235.042C10.7062 239.232 10.4564 243.489 10.3177 247.768C10.2233 250.543 10.1789 253.273 10.1789 256.026C10.1789 257.408 10.1789 258.801 10.2122 260.171C10.2955 265.105 10.5231 270.055 10.8949 274.934C11.3778 281.238 12.0993 287.559 13.0484 293.703C14.2639 301.589 15.8734 309.475 17.8381 317.134C18.1933 318.488 18.5486 319.847 18.9482 321.196C29.2328 358.735 48.3353 393.274 74.6659 421.94L75.2765 422.595L76.2089 423.605C81.0523 428.785 86.1325 433.779 91.4496 438.589C99.76 446.084 108.57 453.005 117.818 459.306L118.579 459.817C140.026 474.347 163.659 485.354 188.582 492.421C190.011 492.828 191.439 493.221 192.867 493.598C202.105 496.044 211.479 497.947 220.94 499.298C227.428 500.224 233.988 500.89 240.571 501.301C243.046 501.456 245.521 501.571 247.997 501.645C250.557 501.726 253.112 501.771 255.661 501.778H255.994C259.879 501.778 263.703 501.689 267.339 501.512C269.052 501.434 270.769 501.34 272.489 501.229C279.521 500.768 286.559 499.997 293.486 498.937C297.186 498.371 300.886 497.716 304.586 496.972C307.546 496.384 310.476 495.742 313.377 495.046C314.643 494.741 315.903 494.43 317.157 494.103C324.15 492.309 331.03 490.218 337.798 487.832C383.619 471.647 423.618 442.249 452.742 403.35C481.867 364.451 498.812 317.795 501.438 269.273C501.671 264.989 501.789 260.688 501.793 256.37V256.004C501.814 237.103 499.656 218.263 495.361 199.857V199.857Z"
        fill="#FFCB44" />
    <path
        d="M348.154 224.997C344.282 235.478 336.457 244.025 326.358 248.807C316.259 253.59 304.688 254.226 294.125 250.581C283.562 246.936 274.847 239.298 269.847 229.305C264.847 219.312 263.961 207.759 267.378 197.12L190.625 148.727L120.46 259.366C178.126 283.302 224.558 320.968 252.637 362.591C266.212 356.358 281.88 355.509 297.176 361.175C312.091 366.709 324.198 377.938 330.838 392.393C337.478 406.848 338.106 423.348 332.586 438.267C324.078 461.22 302.793 475.849 281.009 478.014C279.885 483.856 278.274 489.594 276.191 495.168C275.409 497.271 274.576 499.336 273.677 501.378C269.92 501.561 266.135 501.639 262.333 501.639C250.607 501.643 238.897 500.814 227.289 499.158C128.497 485.056 48.6636 412.177 24.3318 317.077C22.367 309.419 20.7723 301.618 19.5476 293.674C18.5929 287.492 17.8751 281.236 17.3941 274.905C16.9168 268.667 16.6781 262.366 16.6781 256.003C16.6781 248.936 16.9741 241.945 17.5662 235.03C44.3289 236.89 72.2128 242.445 100.202 251.874L178.237 128.276C180.141 125.912 182.333 124.158 185.069 123.642C187.88 123.151 190.775 123.676 193.233 125.124L279.044 179.417C284.699 173.823 291.841 169.971 299.621 168.317C307.402 166.663 315.493 167.278 322.935 170.088C333.546 174.045 342.157 182.044 346.883 192.335C351.61 202.626 352.067 214.37 348.154 224.997V224.997Z"
        fill="#00695C" />
    <path opacity="0.1"
        d="M495.361 199.857C494.794 197.449 494.193 195.044 493.557 192.643C492.885 190.106 492.164 187.581 491.409 185.067C488.884 176.664 485.902 168.405 482.479 160.327C480.629 155.964 478.666 151.671 476.59 147.446C475.935 146.114 475.269 144.798 474.592 143.483C472.55 139.521 470.407 135.636 468.165 131.829C457.552 113.723 444.659 97.0545 429.802 82.2309C429.486 81.9146 429.17 81.5983 428.853 81.293L428.204 80.6493C417.771 70.3882 406.44 61.0812 394.348 52.8396C391.299 50.7604 388.202 48.7495 385.057 46.8071C384.669 46.5685 384.28 46.3243 383.886 46.0912C332.355 14.7742 271.129 3.43468 211.799 14.2192C207.729 14.9591 203.684 15.8027 199.666 16.7499C197.365 17.2863 195.074 17.8579 192.795 18.4647C144.234 31.3986 100.801 58.898 68.3434 97.2612C35.8855 135.624 15.9604 183.01 11.2501 233.039C11.1835 233.705 11.1225 234.376 11.067 235.042C10.7062 239.232 10.4564 243.489 10.3177 247.768C10.2233 250.543 10.1789 253.273 10.1789 256.026C10.1789 257.408 10.1789 258.801 10.2122 260.171C10.2955 265.105 10.5231 270.055 10.8949 274.934C11.3778 281.238 12.0993 287.559 13.0484 293.703C14.2639 301.589 15.8734 309.475 17.8381 317.134C18.1933 318.488 18.5486 319.847 18.9482 321.196C29.2328 358.735 48.3353 393.274 74.6659 421.94L75.2765 422.595L76.2089 423.605C81.0523 428.785 86.1325 433.779 91.4496 438.589C99.76 446.084 108.57 453.005 117.818 459.306L118.579 459.817C140.026 474.347 163.659 485.354 188.582 492.421C190.011 492.828 191.439 493.221 192.867 493.598C202.105 496.044 211.479 497.947 220.94 499.298C227.428 500.224 233.988 500.89 240.571 501.301C243.046 501.456 245.521 501.571 247.997 501.645C250.557 501.726 253.112 501.771 255.661 501.778H255.994C259.879 501.778 263.703 501.689 267.339 501.512C269.052 501.434 270.769 501.34 272.489 501.229C279.521 500.768 286.559 499.997 293.486 498.937C297.186 498.371 300.886 497.716 304.586 496.972C307.546 496.384 310.476 495.742 313.377 495.046C314.643 494.741 315.903 494.43 317.157 494.103C324.15 492.309 331.03 490.218 337.798 487.832C383.619 471.647 423.618 442.249 452.742 403.35C481.867 364.451 498.812 317.795 501.438 269.273C501.671 264.989 501.789 260.688 501.793 256.37V256.004C501.814 237.103 499.656 218.263 495.361 199.857V199.857Z"
        fill="black" />
    <g opacity="0.2">
        <path
            d="M390.435 38.0988L377.115 54.3428L81.8478 414.608L68.7551 430.58C68.2001 430.025 67.6839 429.426 67.1511 428.849C39.7119 398.985 19.8077 362.996 9.09668 323.881C8.70817 322.472 8.33631 321.057 7.98665 319.647C5.93865 311.672 4.26251 303.458 2.99153 295.228C2.00361 288.829 1.24879 282.247 0.771477 275.677C0.382967 270.599 0.144295 265.443 0.0610433 260.304L21.7565 233.832L188.127 30.8509L210.017 4.14013C243.187 -1.87094 277.212 -1.33174 310.175 5.72734C338.587 11.8621 365.742 22.8044 390.469 38.0822L390.435 38.0988Z"
            fill="white" />
        <path
            d="M483.666 138.809L469.197 156.458L200.199 484.651L185.769 502.238C159.504 494.784 134.615 483.139 112.063 467.752L125.111 451.83L422.104 89.5114L435.353 73.3506L437.018 75.0155C452.493 90.4541 465.923 107.815 476.979 126.672C479.31 130.642 481.539 134.688 483.666 138.809Z"
            fill="white" />
        <path
            d="M512 256.003V256.391L489.655 283.624L328.89 479.767L306.589 506.961C302.752 507.734 298.897 508.415 295.023 509.003C286.001 510.385 276.912 511.281 267.794 511.689C264.009 511.872 260.024 511.967 255.978 511.967H255.634C250.4 511.967 245.149 511.789 239.916 511.467L256.472 491.272L486.802 210.223L503.381 190C509.121 211.531 512.019 233.72 512 256.003V256.003Z"
            fill="white" />
    </g>
    <path
        d="M503.419 190.022C502.72 187.381 501.98 184.75 501.199 182.131C498.561 173.377 495.449 164.773 491.875 156.358C489.348 150.386 486.61 144.539 483.661 138.815C481.537 134.69 479.306 130.637 476.967 126.656C465.912 107.798 452.482 90.4375 437.007 74.9989L435.341 73.334C424.482 62.6469 412.687 52.9535 400.098 44.37C396.923 42.1982 393.699 40.1041 390.424 38.0877C336.519 4.91738 272.257 -7.16672 209.984 4.15678C203.324 5.37402 196.725 6.85394 190.186 8.59655C139.267 22.1629 93.771 51.1025 59.9018 91.4694C26.0325 131.836 5.43819 181.666 0.926863 234.165C0.310798 241.335 0 248.688 0 256.019C0 257.455 0.0129544 258.894 0.038855 260.337C0.122107 265.476 0.360745 270.632 0.749255 275.71C1.24877 282.281 2.00359 288.863 2.96931 295.261C4.23474 303.475 5.91088 311.689 7.96443 319.68C8.33074 321.09 8.7026 322.505 9.07446 323.915C19.7822 363.028 39.6826 399.017 67.1178 428.882C67.6728 429.437 68.1834 430.042 68.7218 430.613C73.7687 436.015 79.0598 441.215 84.5951 446.214C93.2523 454.017 102.427 461.226 112.057 467.791C144.207 489.692 180.95 503.931 219.463 509.414C226.218 510.379 233.05 511.079 239.91 511.501C245.144 511.822 250.394 511.989 255.628 512H255.972C260.013 512 264.003 511.906 267.788 511.723C276.906 511.315 285.996 510.418 295.017 509.036C298.891 508.448 302.747 507.767 306.584 506.994C309.648 506.38 312.698 505.71 315.736 504.985C349.822 496.815 381.859 481.711 409.85 460.615C430.54 445.038 448.756 426.423 463.88 405.401C495.192 362.033 512.024 309.892 511.978 256.402V256.003C512.015 233.73 509.138 211.548 503.419 190.022ZM489.655 283.629C479.221 371.82 419.418 447.901 334.285 477.953C333.038 478.389 331.782 478.818 330.516 479.24C329.961 479.418 329.439 479.601 328.895 479.795C316.822 483.728 304.449 486.672 291.898 488.597C283.875 489.822 275.795 490.634 267.689 491.028L266.839 491.072C263.509 491.233 260.024 491.311 256.477 491.316H255.994C244.758 491.316 233.535 490.522 222.411 488.941C214.888 487.864 207.488 486.444 200.21 484.679C154.633 473.704 113.4 449.301 81.8478 414.63C80.5084 413.15 79.1893 411.67 77.8906 410.19C54.0825 382.608 37.0125 349.869 28.0282 314.558C26.5851 308.942 25.3419 303.203 24.3207 297.431C24.0043 295.672 23.7157 293.907 23.4438 292.148C22.5335 286.265 21.8453 280.216 21.3847 274.173C20.924 268.129 20.6687 262.046 20.6687 256.003C20.6687 249.26 20.9573 242.5 21.5234 235.902C21.5789 235.219 21.64 234.531 21.7066 233.848C30.2482 142.339 92.1933 66.1637 174.785 35.3739C179.158 33.7423 183.598 32.2402 188.105 30.8675C210.104 24.1254 232.985 20.6969 255.994 20.6949C298.681 20.6548 340.566 32.2845 377.121 54.3262C381.405 56.9161 385.601 59.6299 389.708 62.4676C421.301 84.3659 447.095 113.617 464.868 147.7C466.374 150.582 467.817 153.498 469.197 156.446C476.901 172.874 482.664 190.142 486.369 207.903C486.53 208.675 486.686 209.452 486.841 210.229C491.599 234.398 492.548 259.162 489.655 283.624V283.629Z"
        fill="#00695C" />
</svg>
