<svg id="Layer_1" data-name="Layer 1" xmlns="http://www.w3.org/2000/svg" viewBox="0 0 2540 1540">
    <defs>
        <style>
            .primary{fill:#00695c;}
            .glass-full{opacity:0.2;}
            .glass-middle{opacity:0.1;}
            .glass-parts{fill:#fff;}
            .background{fill:#ddbb00}
        </style>
    </defs>
    <path class="background"
        d="M1701.28,668.83q-1.53-6.51-3.25-13c-1.21-4.57-2.51-9.12-3.87-13.65h0a435.4,435.4,0,0,0-16.09-44.58q-5-11.79-10.61-23.21c-1.18-2.4-2.38-4.77-3.6-7.14h0q-5.52-10.71-11.58-21a442,442,0,0,0-69.12-89.37c-.57-.57-1.14-1.14-1.71-1.69l-1.17-1.16a442,442,0,0,0-61-50.11q-8.24-5.62-16.74-10.87c-.7-.43-1.4-.87-2.11-1.29a444.07,444.07,0,0,0-310.06-57.43q-11,2-21.86,4.56-6.22,1.45-12.38,3.09a443.1,443.1,0,0,0-327.1,386.64c-.12,1.2-.23,2.41-.33,3.61-.65,7.55-1.1,15.22-1.35,22.93-.17,5-.25,9.92-.25,14.88,0,2.49,0,5,.06,7.47.15,8.89.56,17.81,1.23,26.6.87,11.36,2.17,22.75,3.88,33.82,2.19,14.21,5.09,28.42,8.63,42.22.64,2.44,1.28,4.89,2,7.32A440.36,440.36,0,0,0,943.29,1069l1.1,1.18,1.68,1.82q13.09,14,27.46,27a445.41,445.41,0,0,0,47.51,37.33l1.37.92A437.87,437.87,0,0,0,1148.54,1196q3.86,1.1,7.72,2.12a441.12,441.12,0,0,0,50.58,10.27c11.69,1.67,23.51,2.87,35.37,3.61q6.69.42,13.38.62,6.92.22,13.81.24h.6c7,0,13.89-.16,20.44-.48q4.63-.21,9.28-.51c12.67-.83,25.35-2.22,37.83-4.13q10-1.53,20-3.54,8-1.59,15.84-3.47c2.28-.55,4.55-1.11,6.81-1.7q18.9-4.85,37.19-11.3a443.06,443.06,0,0,0,294.84-393.82q.63-11.58.64-23.25V770A443,443,0,0,0,1701.28,668.83Z" />

    <path class="primary"
        d="M1436.05,714.13a77,77,0,0,1-145.54-50.23l-138.29-87.2L1025.8,776.06c103.9,43.13,187.56,111,238.15,186,24.46-11.23,52.69-12.76,80.25-2.55a108.14,108.14,0,0,1,63.8,138.91c-15.33,41.36-53.68,67.72-92.93,71.62a191.76,191.76,0,0,1-8.68,30.91c-1.41,3.79-2.91,7.51-4.53,11.19-6.77.33-13.59.47-20.44.47a445.75,445.75,0,0,1-63.14-4.47c-178-25.41-321.84-156.73-365.68-328.09q-5.31-20.7-8.62-42.17-2.58-16.71-3.88-33.82-1.29-16.86-1.29-34.06,0-19.1,1.6-37.79c48.22,3.35,98.46,13.36,148.89,30.35l140.6-222.71c3.43-4.26,7.38-7.42,12.31-8.35a21.64,21.64,0,0,1,14.71,2.67L1311.53,632a74.85,74.85,0,0,1,79.08-16.81A77.15,77.15,0,0,1,1436.05,714.13Z" />

    <path class="glass-middle"
        d="M1701.28,668.83q-1.53-6.51-3.25-13c-1.21-4.57-2.51-9.12-3.87-13.65h0a435.4,435.4,0,0,0-16.09-44.58q-5-11.79-10.61-23.21c-1.18-2.4-2.38-4.77-3.6-7.14h0q-5.52-10.71-11.58-21a442,442,0,0,0-69.12-89.37c-.57-.57-1.14-1.14-1.71-1.69l-1.17-1.16a442,442,0,0,0-61-50.11q-8.24-5.62-16.74-10.87c-.7-.43-1.4-.87-2.11-1.29a444.07,444.07,0,0,0-310.06-57.43q-11,2-21.86,4.56-6.22,1.45-12.38,3.09a443.1,443.1,0,0,0-327.1,386.64c-.12,1.2-.23,2.41-.33,3.61-.65,7.55-1.1,15.22-1.35,22.93-.17,5-.25,9.92-.25,14.88,0,2.49,0,5,.06,7.47.15,8.89.56,17.81,1.23,26.6.87,11.36,2.17,22.75,3.88,33.82,2.19,14.21,5.09,28.42,8.63,42.22.64,2.44,1.28,4.89,2,7.32A440.36,440.36,0,0,0,943.29,1069l1.1,1.18,1.68,1.82q13.09,14,27.46,27a445.41,445.41,0,0,0,47.51,37.33l1.37.92A437.87,437.87,0,0,0,1148.54,1196q3.86,1.1,7.72,2.12a441.12,441.12,0,0,0,50.58,10.27c11.69,1.67,23.51,2.87,35.37,3.61q6.69.42,13.38.62,6.92.22,13.81.24h.6c7,0,13.89-.16,20.44-.48q4.63-.21,9.28-.51c12.67-.83,25.35-2.22,37.83-4.13q10-1.53,20-3.54,8-1.59,15.84-3.47c2.28-.55,4.55-1.11,6.81-1.7q18.9-4.85,37.19-11.3a443.06,443.06,0,0,0,294.84-393.82q.63-11.58.64-23.25V770A443,443,0,0,0,1701.28,668.83Z" />

    <g class="glass-full">
        <path class="glass-parts"
            d="M1512.23,377.36l-24,29.27-532,649.16-23.59,28.78c-1-1-1.93-2.08-2.89-3.12A458.57,458.57,0,0,1,825.15,892.31c-.7-2.54-1.37-5.09-2-7.63-3.69-14.37-6.71-29.17-9-44-1.78-11.53-3.14-23.39-4-35.23-.7-9.15-1.13-18.44-1.28-27.7l39.09-47.7,299.76-365.75,39.44-48.13a465.4,465.4,0,0,1,180.46,2.86,459.89,459.89,0,0,1,144.67,58.3Z" />
        <path class="glass-parts"
            d="M1680.21,558.83h0l-26.07,31.8L1169.47,1182l-26,31.69a457,457,0,0,1-132.8-62.14l23.51-28.69L1569.29,470l23.87-29.12,3,3a460.34,460.34,0,0,1,72,93.08Q1674.46,547.69,1680.21,558.83Z" />
        <path class="glass-parts"
            d="M1731.26,770v.7L1691,819.77h0l-289.66,353.43h0l-40.18,49q-10.37,2.09-20.84,3.68a459.8,459.8,0,0,1-49.06,4.84c-6.82.33-14,.5-21.29.5h-.62c-9.43,0-18.89-.32-28.32-.9l29.83-36.39,415-506.42,29.87-36.44A460.13,460.13,0,0,1,1731.26,770Z" />
    </g>

    <path class="primary"
        d="M1715.8,651.11q-1.89-7.14-4-14.22h0A454,454,0,0,0,1695,590.45q-6.83-16.14-14.8-31.61h0q-5.74-11.15-12.06-21.91a460.34,460.34,0,0,0-72-93.08l-3-3a459.93,459.93,0,0,0-63.5-52.19q-8.58-5.87-17.43-11.32A462.45,462.45,0,0,0,1187.1,316.2q-18,3.29-35.67,8a461.52,461.52,0,0,0-341,406.45c-1.11,12.92-1.67,26.17-1.67,39.38q0,3.88.07,7.78c.15,9.26.58,18.55,1.28,27.7.9,11.84,2.26,23.7,4,35.23,2.28,14.8,5.3,29.6,9,44,.66,2.54,1.33,5.09,2,7.63a458.57,458.57,0,0,0,104.58,189.14c1,1,1.92,2.09,2.89,3.12q13.64,14.6,28.6,28.11a465.81,465.81,0,0,0,49.48,38.88,458.51,458.51,0,0,0,193.52,75c12.17,1.74,24.48,3,36.84,3.76,9.43.58,18.89.88,28.32.9h.62c7.28,0,14.47-.17,21.29-.5a459.8,459.8,0,0,0,49.06-4.84q10.47-1.59,20.84-3.68,8.28-1.66,16.49-3.62a459.81,459.81,0,0,0,169.57-79.95,463,463,0,0,0,97.35-99.49,458,458,0,0,0,86.66-268.48V770A460.13,460.13,0,0,0,1715.8,651.11ZM1691,819.78c-18.8,158.91-126.55,296-279.94,350.15q-3.37,1.18-6.79,2.32h0c-1,.32-1.94.65-2.92,1h0a421.48,421.48,0,0,1-66.66,15.86,425.8,425.8,0,0,1-43.62,4.38l-1.53.08c-6,.29-12.28.43-18.67.44H1270a430,430,0,0,1-60.51-4.28q-20.33-2.91-40-7.68a421.89,421.89,0,0,1-213.26-126.22q-3.62-4-7.13-8a423.58,423.58,0,0,1-89.84-172.32c-2.6-10.12-4.84-20.46-6.68-30.86-.57-3.17-1.09-6.35-1.58-9.52-1.64-10.6-2.88-21.5-3.71-32.39S846,780.89,846,770c0-12.15.52-24.33,1.54-36.22.1-1.23.21-2.47.33-3.7,15.39-164.89,127-302.15,275.81-357.63q11.82-4.41,24-8.12A417.54,417.54,0,0,1,1270,346a421.85,421.85,0,0,1,218.24,60.6q11.58,7,22.68,14.67a427.19,427.19,0,0,1,135.42,153.58q4.07,7.79,7.8,15.76a420.85,420.85,0,0,1,30.94,92.72c.29,1.39.57,2.79.85,4.19A425.8,425.8,0,0,1,1691,819.77Z" />

</svg>
